<?xml version="1.0" encoding="UTF-8"?>
<!DOCTYPE svg PUBLIC "-//W3C//DTD SVG 1.1//EN" "http://www.w3.org/Graphics/SVG/1.1/DTD/svg11.dtd">
<svg version="1.2" width="200mm" height="200mm" viewBox="0 0 20000 20000" preserveAspectRatio="xMidYMid" fill-rule="evenodd" stroke-width="28.222" stroke-linejoin="round" xmlns="http://www.w3.org/2000/svg" xmlns:ooo="http://xml.openoffice.org/svg/export" xmlns:xlink="http://www.w3.org/1999/xlink" xmlns:presentation="http://sun.com/xmlns/staroffice/presentation" xmlns:smil="http://www.w3.org/2001/SMIL20/" xmlns:anim="urn:oasis:names:tc:opendocument:xmlns:animation:1.0" xml:space="preserve">
 <defs class="ClipPathGroup">
  <clipPath id="presentation_clip_path" clipPathUnits="userSpaceOnUse">
   <rect x="0" y="0" width="20000" height="20000"/>
  </clipPath>
  <clipPath id="presentation_clip_path_shrink" clipPathUnits="userSpaceOnUse">
   <rect x="20" y="20" width="19960" height="19960"/>
  </clipPath>
 </defs>
 <defs class="TextShapeIndex">
  <g ooo:slide="id1" ooo:id-list="id3 id4 id5 id6 id7 id8 id9 id10 id11 id12 id13 id14 id15 id16 id17 id18 id19 id20 id21 id22 id23 id24 id25 id26 id27 id28 id29 id30 id31 id32 id33 id34 id35 id36 id37 id38 id39 id40 id41 id42 id43 id44 id45 id46 id47 id48 id49 id50 id51 id52 id53"/>
 </defs>
 <defs class="EmbeddedBulletChars">
  <g id="bullet-char-template-57356" transform="scale(0.00048828125,-0.00048828125)">
   <path d="M 580,1141 L 1163,571 580,0 -4,571 580,1141 Z"/>
  </g>
  <g id="bullet-char-template-57354" transform="scale(0.00048828125,-0.00048828125)">
   <path d="M 8,1128 L 1137,1128 1137,0 8,0 8,1128 Z"/>
  </g>
  <g id="bullet-char-template-10146" transform="scale(0.00048828125,-0.00048828125)">
   <path d="M 174,0 L 602,739 174,1481 1456,739 174,0 Z M 1358,739 L 309,1346 659,739 1358,739 Z"/>
  </g>
  <g id="bullet-char-template-10132" transform="scale(0.00048828125,-0.00048828125)">
   <path d="M 2015,739 L 1276,0 717,0 1260,543 174,543 174,936 1260,936 717,1481 1274,1481 2015,739 Z"/>
  </g>
  <g id="bullet-char-template-10007" transform="scale(0.00048828125,-0.00048828125)">
   <path d="M 0,-2 C -7,14 -16,27 -25,37 L 356,567 C 262,823 215,952 215,954 215,979 228,992 255,992 264,992 276,990 289,987 310,991 331,999 354,1012 L 381,999 492,748 772,1049 836,1024 860,1049 C 881,1039 901,1025 922,1006 886,937 835,863 770,784 769,783 710,716 594,584 L 774,223 C 774,196 753,168 711,139 L 727,119 C 717,90 699,76 672,76 641,76 570,178 457,381 L 164,-76 C 142,-110 111,-127 72,-127 30,-127 9,-110 8,-76 1,-67 -2,-52 -2,-32 -2,-23 -1,-13 0,-2 Z"/>
  </g>
  <g id="bullet-char-template-10004" transform="scale(0.00048828125,-0.00048828125)">
   <path d="M 285,-33 C 182,-33 111,30 74,156 52,228 41,333 41,471 41,549 55,616 82,672 116,743 169,778 240,778 293,778 328,747 346,684 L 369,508 C 377,444 397,411 428,410 L 1163,1116 C 1174,1127 1196,1133 1229,1133 1271,1133 1292,1118 1292,1087 L 1292,965 C 1292,929 1282,901 1262,881 L 442,47 C 390,-6 338,-33 285,-33 Z"/>
  </g>
  <g id="bullet-char-template-9679" transform="scale(0.00048828125,-0.00048828125)">
   <path d="M 813,0 C 632,0 489,54 383,161 276,268 223,411 223,592 223,773 276,916 383,1023 489,1130 632,1184 813,1184 992,1184 1136,1130 1245,1023 1353,916 1407,772 1407,592 1407,412 1353,268 1245,161 1136,54 992,0 813,0 Z"/>
  </g>
  <g id="bullet-char-template-8226" transform="scale(0.00048828125,-0.00048828125)">
   <path d="M 346,457 C 273,457 209,483 155,535 101,586 74,649 74,723 74,796 101,859 155,911 209,963 273,989 346,989 419,989 480,963 531,910 582,859 608,796 608,723 608,648 583,586 532,535 482,483 420,457 346,457 Z"/>
  </g>
  <g id="bullet-char-template-8211" transform="scale(0.00048828125,-0.00048828125)">
   <path d="M -4,459 L 1135,459 1135,606 -4,606 -4,459 Z"/>
  </g>
  <g id="bullet-char-template-61548" transform="scale(0.00048828125,-0.00048828125)">
   <path d="M 173,740 C 173,903 231,1043 346,1159 462,1274 601,1332 765,1332 928,1332 1067,1274 1183,1159 1299,1043 1357,903 1357,740 1357,577 1299,437 1183,322 1067,206 928,148 765,148 601,148 462,206 346,322 231,437 173,577 173,740 Z"/>
  </g>
 </defs>
 <g>
  <g id="id2" class="Master_Slide">
   <g id="bg-id2" class="Background"/>
   <g id="bo-id2" class="BackgroundObjects"/>
  </g>
 </g>
 <g class="SlideGroup">
  <g>
   <g id="container-id1">
    <g id="id1" class="Slide" clip-path="url(#presentation_clip_path)">
     <g class="Page">
      <g class="com.sun.star.drawing.CustomShape">
       <g id="id3">
        <rect class="BoundingBox" stroke="none" fill="none" x="0" y="0" width="20002" height="20002"/>
        <path fill="rgb(255,255,255)" stroke="none" d="M 20001,10001 C 20001,11756 19539,13480 18661,15001 17783,16521 16521,17783 15001,18661 13480,19539 11756,20001 10001,20001 8245,20001 6521,19539 5000,18661 3480,17783 2218,16521 1340,15001 462,13480 0,11756 0,10001 0,8245 462,6521 1340,5000 2218,3480 3480,2218 5000,1340 6521,462 8245,0 10000,0 11756,0 13480,462 15001,1340 16521,2218 17783,3480 18661,5000 19539,6521 20001,8245 20001,10000 L 20001,10001 Z"/>
       </g>
      </g>
      <g class="com.sun.star.drawing.CustomShape">
       <g id="id4">
        <rect class="BoundingBox" stroke="none" fill="none" x="5174" y="5397" width="3002" height="3002"/>
        <path fill="rgb(114,159,207)" stroke="none" d="M 8175,6898 C 8175,7161 8106,7420 7974,7648 7842,7876 7653,8065 7425,8197 7197,8329 6938,8398 6675,8398 6411,8398 6152,8329 5924,8197 5696,8065 5507,7876 5375,7648 5243,7420 5174,7161 5174,6898 5174,6634 5243,6375 5375,6147 5507,5919 5696,5730 5924,5598 6152,5466 6411,5397 6675,5397 6938,5397 7197,5466 7425,5598 7653,5730 7842,5919 7974,6147 8106,6375 8175,6634 8175,6897 L 8175,6898 Z"/>
       </g>
      </g>
      <g class="com.sun.star.drawing.CustomShape">
       <g id="id5">
        <rect class="BoundingBox" stroke="none" fill="none" x="5401" y="12051" width="3002" height="3002"/>
        <path fill="rgb(114,159,207)" stroke="none" d="M 8402,13552 C 8402,13815 8333,14074 8201,14302 8069,14530 7880,14719 7652,14851 7424,14983 7165,15052 6902,15052 6638,15052 6379,14983 6151,14851 5923,14719 5734,14530 5602,14302 5470,14074 5401,13815 5401,13552 5401,13288 5470,13029 5602,12801 5734,12573 5923,12384 6151,12252 6379,12120 6638,12051 6901,12051 7165,12051 7424,12120 7652,12252 7880,12384 8069,12573 8201,12801 8333,13029 8402,13288 8402,13551 L 8402,13552 Z"/>
       </g>
      </g>
      <g class="com.sun.star.drawing.CustomShape">
       <g id="id6">
        <rect class="BoundingBox" stroke="none" fill="none" x="6400" y="8250" width="4003" height="4002"/>
        <path fill="rgb(114,159,207)" stroke="none" d="M 10401,10251 C 10401,10602 10309,10947 10133,11251 9957,11555 9705,11807 9401,11983 9097,12159 8752,12251 8401,12251 8049,12251 7704,12159 7400,11983 7096,11807 6844,11555 6668,11251 6492,10947 6400,10602 6400,10251 6400,9899 6492,9554 6668,9250 6844,8946 7096,8694 7400,8518 7704,8342 8049,8250 8401,8250 8752,8250 9097,8342 9401,8518 9705,8694 9957,8946 10133,9250 10309,9554 10401,9899 10401,10250 L 10401,10251 Z"/>
       </g>
      </g>
      <g class="com.sun.star.drawing.CustomShape">
       <g id="id7">
        <rect class="BoundingBox" stroke="none" fill="none" x="8250" y="5100" width="3002" height="3002"/>
        <path fill="rgb(114,159,207)" stroke="none" d="M 11251,6601 C 11251,6864 11182,7123 11050,7351 10918,7579 10729,7768 10501,7900 10273,8032 10014,8101 9751,8101 9487,8101 9228,8032 9000,7900 8772,7768 8583,7579 8451,7351 8319,7123 8250,6864 8250,6601 8250,6337 8319,6078 8451,5850 8583,5622 8772,5433 9000,5301 9228,5169 9487,5100 9750,5100 10014,5100 10273,5169 10501,5301 10729,5433 10918,5622 11050,5850 11182,6078 11251,6337 11251,6600 L 11251,6601 Z"/>
       </g>
      </g>
      <g class="com.sun.star.drawing.CustomShape">
       <g id="id8">
        <rect class="BoundingBox" stroke="none" fill="none" x="14200" y="6950" width="3003" height="3003"/>
        <path fill="rgb(114,159,207)" stroke="none" d="M 17201,8451 C 17201,8714 17132,8973 17000,9201 16868,9429 16679,9618 16451,9750 16223,9882 15964,9951 15701,9951 15437,9951 15178,9882 14950,9750 14722,9618 14533,9429 14401,9201 14269,8973 14200,8714 14200,8451 14200,8187 14269,7928 14401,7700 14533,7472 14722,7283 14950,7151 15178,7019 15437,6950 15701,6950 15964,6950 16223,7019 16451,7151 16679,7283 16868,7472 17000,7700 17132,7928 17201,8187 17201,8450 L 17201,8451 Z"/>
       </g>
      </g>
      <g class="com.sun.star.drawing.CustomShape">
       <g id="id9">
        <rect class="BoundingBox" stroke="none" fill="none" x="10205" y="7755" width="2002" height="2002"/>
        <path fill="rgb(114,159,207)" stroke="none" d="M 12206,8756 C 12206,8931 12160,9104 12072,9256 11984,9408 11858,9534 11706,9622 11554,9710 11381,9756 11206,9756 11030,9756 10857,9710 10705,9622 10553,9534 10427,9408 10339,9256 10251,9104 10205,8931 10205,8756 10205,8580 10251,8407 10339,8255 10427,8103 10553,7977 10705,7889 10857,7801 11030,7755 11206,7755 11381,7755 11554,7801 11706,7889 11858,7977 11984,8103 12072,8255 12160,8407 12206,8580 12206,8756 L 12206,8756 Z"/>
       </g>
      </g>
      <g class="com.sun.star.drawing.CustomShape">
       <g id="id10">
        <rect class="BoundingBox" stroke="none" fill="none" x="15750" y="9750" width="4003" height="4003"/>
        <path fill="rgb(114,159,207)" stroke="none" d="M 19751,11751 C 19751,12102 19659,12447 19483,12751 19307,13055 19055,13307 18751,13483 18447,13659 18102,13751 17751,13751 17399,13751 17054,13659 16750,13483 16446,13307 16194,13055 16018,12751 15842,12447 15750,12102 15750,11751 15750,11399 15842,11054 16018,10750 16194,10446 16446,10194 16750,10018 17054,9842 17399,9750 17751,9750 18102,9750 18447,9842 18751,10018 19055,10194 19307,10446 19483,10750 19659,11054 19751,11399 19751,11750 L 19751,11751 Z"/>
       </g>
      </g>
      <g class="com.sun.star.drawing.CustomShape">
       <g id="id11">
        <rect class="BoundingBox" stroke="none" fill="none" x="10499" y="9500" width="5003" height="5002"/>
        <path fill="rgb(114,159,207)" stroke="none" d="M 15501,12001 C 15501,12439 15385,12871 15166,13251 14947,13631 14631,13947 14251,14166 13871,14385 13439,14501 13000,14501 12562,14501 12130,14385 11750,14166 11370,13947 11054,13631 10835,13251 10616,12871 10500,12439 10500,12001 10500,11562 10616,11130 10835,10750 11054,10370 11370,10054 11750,9835 12130,9616 12562,9500 13000,9500 13439,9500 13871,9616 14251,9835 14631,10054 14947,10370 15166,10750 15385,11130 15501,11562 15501,12000 L 15501,12001 Z"/>
       </g>
      </g>
      <g class="com.sun.star.drawing.CustomShape">
       <g id="id12">
        <rect class="BoundingBox" stroke="none" fill="none" x="5301" y="400" width="5002" height="5002"/>
        <path fill="rgb(114,159,207)" stroke="none" d="M 10302,2900 C 10302,3339 10186,3771 9967,4151 9748,4531 9432,4847 9052,5066 8672,5285 8240,5401 7802,5401 7363,5401 6931,5285 6551,5066 6171,4847 5855,4531 5636,4151 5417,3771 5301,3339 5301,2901 5301,2462 5417,2030 5636,1650 5855,1270 6171,954 6551,735 6931,516 7363,400 7801,400 8240,400 8672,516 9052,735 9432,954 9748,1270 9967,1650 10186,2030 10302,2462 10302,2900 L 10302,2900 Z"/>
       </g>
      </g>
      <g class="com.sun.star.drawing.CustomShape">
       <g id="id13">
        <rect class="BoundingBox" stroke="none" fill="none" x="8906" y="12954" width="2002" height="2003"/>
        <path fill="rgb(114,159,207)" stroke="none" d="M 10907,13955 C 10907,14131 10861,14304 10773,14456 10685,14608 10559,14734 10407,14822 10255,14910 10082,14956 9907,14956 9731,14956 9558,14910 9406,14822 9254,14734 9128,14608 9040,14456 8952,14304 8906,14131 8906,13955 8906,13780 8952,13607 9040,13455 9128,13303 9254,13177 9406,13089 9558,13001 9731,12955 9907,12955 10082,12955 10255,13001 10407,13089 10559,13177 10685,13303 10773,13455 10861,13607 10907,13780 10907,13955 L 10907,13955 Z"/>
       </g>
      </g>
      <g class="com.sun.star.drawing.CustomShape">
       <g id="id14">
        <rect class="BoundingBox" stroke="none" fill="none" x="14501" y="13751" width="3003" height="3003"/>
        <path fill="rgb(114,159,207)" stroke="none" d="M 17502,15252 C 17502,15515 17433,15774 17301,16002 17169,16230 16980,16419 16752,16551 16524,16683 16265,16752 16002,16752 15738,16752 15479,16683 15251,16551 15023,16419 14834,16230 14702,16002 14570,15774 14501,15515 14501,15252 14501,14988 14570,14729 14702,14501 14834,14273 15023,14084 15251,13952 15479,13820 15738,13751 16002,13751 16265,13751 16524,13820 16752,13952 16980,14084 17169,14273 17301,14501 17433,14729 17502,14988 17502,15252 L 17502,15252 Z"/>
       </g>
      </g>
      <g class="com.sun.star.drawing.CustomShape">
       <g id="id15">
        <rect class="BoundingBox" stroke="none" fill="none" x="8601" y="14900" width="5002" height="5002"/>
        <path fill="rgb(114,159,207)" stroke="none" d="M 13602,17401 C 13602,17839 13486,18271 13267,18651 13048,19031 12732,19347 12352,19566 11972,19785 11540,19901 11102,19901 10663,19901 10231,19785 9851,19566 9471,19347 9155,19031 8936,18651 8717,18271 8601,17839 8601,17401 8601,16962 8717,16530 8936,16150 9155,15770 9471,15454 9851,15235 10231,15016 10663,14900 11102,14900 11540,14900 11972,15016 12352,15235 12732,15454 13048,15770 13267,16150 13486,16530 13602,16962 13602,17400 L 13602,17401 Z"/>
       </g>
      </g>
      <g class="com.sun.star.drawing.CustomShape">
       <g id="id16">
        <rect class="BoundingBox" stroke="none" fill="none" x="13707" y="16656" width="2002" height="2002"/>
        <path fill="rgb(114,159,207)" stroke="none" d="M 15708,17657 C 15708,17832 15662,18005 15574,18157 15486,18309 15360,18435 15208,18523 15056,18611 14883,18657 14708,18657 14532,18657 14359,18611 14207,18523 14055,18435 13929,18309 13841,18157 13753,18005 13707,17832 13707,17657 13707,17481 13753,17308 13841,17156 13929,17004 14055,16878 14207,16790 14359,16702 14532,16656 14708,16656 14883,16656 15056,16702 15208,16790 15360,16878 15486,17004 15574,17156 15662,17308 15708,17481 15708,17657 L 15708,17657 Z"/>
       </g>
      </g>
      <g class="com.sun.star.drawing.CustomShape">
       <g id="id17">
        <rect class="BoundingBox" stroke="none" fill="none" x="11401" y="3451" width="4003" height="4002"/>
        <path fill="rgb(114,159,207)" stroke="none" d="M 15402,5452 C 15402,5803 15310,6148 15134,6452 14958,6756 14706,7008 14402,7184 14098,7360 13753,7452 13402,7452 13050,7452 12705,7360 12401,7184 12097,7008 11845,6756 11669,6452 11493,6148 11401,5803 11401,5452 11401,5100 11493,4755 11669,4451 11845,4147 12097,3895 12401,3719 12705,3543 13050,3451 13402,3451 13753,3451 14098,3543 14402,3719 14706,3895 14958,4147 15134,4451 15310,4755 15402,5100 15402,5451 L 15402,5452 Z"/>
       </g>
      </g>
      <g class="com.sun.star.drawing.CustomShape">
       <g id="id18">
        <rect class="BoundingBox" stroke="none" fill="none" x="12206" y="7555" width="1002" height="1002"/>
        <path fill="rgb(114,159,207)" stroke="none" d="M 13207,8056 C 13207,8143 13184,8230 13140,8306 13096,8382 13033,8445 12957,8489 12881,8533 12794,8556 12707,8556 12619,8556 12532,8533 12456,8489 12380,8445 12317,8382 12273,8306 12229,8230 12206,8143 12206,8056 12206,7968 12229,7881 12273,7805 12317,7729 12380,7666 12456,7622 12532,7578 12619,7555 12707,7555 12794,7555 12881,7578 12957,7622 13033,7666 13096,7729 13140,7805 13184,7881 13207,7968 13207,8056 L 13207,8056 Z"/>
       </g>
      </g>
      <g class="com.sun.star.drawing.CustomShape">
       <g id="id19">
        <rect class="BoundingBox" stroke="none" fill="none" x="13107" y="8356" width="1002" height="1002"/>
        <path fill="rgb(114,159,207)" stroke="none" d="M 14108,8857 C 14108,8944 14085,9031 14041,9107 13997,9183 13934,9246 13858,9290 13782,9334 13695,9357 13608,9357 13520,9357 13433,9334 13357,9290 13281,9246 13218,9183 13174,9107 13130,9031 13107,8944 13107,8857 13107,8769 13130,8682 13174,8606 13218,8530 13281,8467 13357,8423 13433,8379 13520,8356 13608,8356 13695,8356 13782,8379 13858,8423 13934,8467 13997,8530 14041,8606 14085,8682 14108,8769 14108,8857 L 14108,8857 Z"/>
       </g>
      </g>
      <g class="com.sun.star.drawing.CustomShape">
       <g id="id20">
        <rect class="BoundingBox" stroke="none" fill="none" x="301" y="9399" width="5002" height="5003"/>
        <path fill="rgb(114,159,207)" stroke="none" d="M 5302,11901 C 5302,12339 5186,12771 4967,13151 4748,13531 4432,13847 4052,14066 3672,14285 3240,14401 2802,14401 2363,14401 1931,14285 1551,14066 1171,13847 855,13531 636,13151 417,12771 301,12339 301,11901 301,11462 417,11030 636,10650 855,10270 1171,9954 1551,9735 1931,9516 2363,9400 2801,9400 3240,9400 3672,9516 4052,9735 4432,9954 4748,10270 4967,10650 5186,11030 5302,11462 5302,11900 L 5302,11901 Z"/>
       </g>
      </g>
      <g class="com.sun.star.drawing.CustomShape">
       <g id="id21">
        <rect class="BoundingBox" stroke="none" fill="none" x="4406" y="8255" width="2002" height="2002"/>
        <path fill="rgb(114,159,207)" stroke="none" d="M 6407,9256 C 6407,9431 6361,9604 6273,9756 6185,9908 6059,10034 5907,10122 5755,10210 5582,10256 5407,10256 5231,10256 5058,10210 4906,10122 4754,10034 4628,9908 4540,9756 4452,9604 4406,9431 4406,9256 4406,9080 4452,8907 4540,8755 4628,8603 4754,8477 4906,8389 5058,8301 5231,8255 5406,8255 5582,8255 5755,8301 5907,8389 6059,8477 6185,8603 6273,8755 6361,8907 6407,9080 6407,9255 L 6407,9256 Z"/>
       </g>
      </g>
      <g class="com.sun.star.drawing.CustomShape">
       <g id="id22">
        <rect class="BoundingBox" stroke="none" fill="none" x="5475" y="16398" width="3002" height="3002"/>
        <path fill="rgb(114,159,207)" stroke="none" d="M 8476,17899 C 8476,18162 8407,18421 8275,18649 8143,18877 7954,19066 7726,19198 7498,19330 7239,19399 6976,19399 6712,19399 6453,19330 6225,19198 5997,19066 5808,18877 5676,18649 5544,18421 5475,18162 5475,17899 5475,17635 5544,17376 5676,17148 5808,16920 5997,16731 6225,16599 6453,16467 6712,16398 6976,16398 7239,16398 7498,16467 7726,16599 7954,16731 8143,16920 8275,17148 8407,17376 8476,17635 8476,17899 L 8476,17899 Z"/>
       </g>
      </g>
      <g class="com.sun.star.drawing.CustomShape">
       <g id="id23">
        <rect class="BoundingBox" stroke="none" fill="none" x="3707" y="13956" width="2002" height="2002"/>
        <path fill="rgb(114,159,207)" stroke="none" d="M 5708,14957 C 5708,15132 5662,15305 5574,15457 5486,15609 5360,15735 5208,15823 5056,15911 4883,15957 4708,15957 4532,15957 4359,15911 4207,15823 4055,15735 3929,15609 3841,15457 3753,15305 3707,15132 3707,14957 3707,14781 3753,14608 3841,14456 3929,14304 4055,14178 4207,14090 4359,14002 4532,13956 4707,13956 4883,13956 5056,14002 5208,14090 5360,14178 5486,14304 5574,14456 5662,14608 5708,14781 5708,14956 L 5708,14957 Z"/>
       </g>
      </g>
      <g class="com.sun.star.drawing.CustomShape">
       <g id="id24">
        <rect class="BoundingBox" stroke="none" fill="none" x="3408" y="16057" width="2002" height="2002"/>
        <path fill="rgb(114,159,207)" stroke="none" d="M 5409,17058 C 5409,17233 5363,17406 5275,17558 5187,17710 5061,17836 4909,17924 4757,18012 4584,18058 4409,18058 4233,18058 4060,18012 3908,17924 3756,17836 3630,17710 3542,17558 3454,17406 3408,17233 3408,17058 3408,16882 3454,16709 3542,16557 3630,16405 3756,16279 3908,16191 4060,16103 4233,16057 4409,16057 4584,16057 4757,16103 4909,16191 5061,16279 5187,16405 5275,16557 5363,16709 5409,16882 5409,17058 L 5409,17058 Z"/>
       </g>
      </g>
      <g class="com.sun.star.drawing.CustomShape">
       <g id="id25">
        <rect class="BoundingBox" stroke="none" fill="none" x="8109" y="14758" width="1002" height="1002"/>
        <path fill="rgb(114,159,207)" stroke="none" d="M 9110,15259 C 9110,15346 9087,15433 9043,15509 8999,15585 8936,15648 8860,15692 8784,15736 8697,15759 8610,15759 8522,15759 8435,15736 8359,15692 8283,15648 8220,15585 8176,15509 8132,15433 8109,15346 8109,15259 8109,15171 8132,15084 8176,15008 8220,14932 8283,14869 8359,14825 8435,14781 8522,14758 8610,14758 8697,14758 8784,14781 8860,14825 8936,14869 8999,14932 9043,15008 9087,15084 9110,15171 9110,15259 L 9110,15259 Z"/>
       </g>
      </g>
      <g class="com.sun.star.drawing.CustomShape">
       <g id="id26">
        <rect class="BoundingBox" stroke="none" fill="none" x="7110" y="15359" width="1002" height="1003"/>
        <path fill="rgb(114,159,207)" stroke="none" d="M 8111,15860 C 8111,15947 8088,16034 8044,16110 8000,16186 7937,16249 7861,16293 7785,16337 7698,16360 7611,16360 7523,16360 7436,16337 7360,16293 7284,16249 7221,16186 7177,16110 7133,16034 7110,15947 7110,15860 7110,15772 7133,15685 7177,15609 7221,15533 7284,15470 7360,15426 7436,15382 7523,15359 7611,15359 7698,15359 7785,15382 7861,15426 7937,15470 8000,15533 8044,15609 8088,15685 8111,15772 8111,15860 L 8111,15860 Z"/>
       </g>
      </g>
      <g class="com.sun.star.drawing.CustomShape">
       <g id="id27">
        <rect class="BoundingBox" stroke="none" fill="none" x="5711" y="15359" width="1002" height="1003"/>
        <path fill="rgb(114,159,207)" stroke="none" d="M 6712,15860 C 6712,15948 6689,16035 6645,16111 6601,16187 6538,16250 6462,16294 6386,16338 6299,16361 6212,16361 6124,16361 6037,16338 5961,16294 5885,16250 5822,16187 5778,16111 5734,16035 5711,15948 5711,15860 5711,15773 5734,15686 5778,15610 5822,15534 5885,15471 5961,15427 6037,15383 6124,15360 6212,15360 6299,15360 6386,15383 6462,15427 6538,15471 6601,15534 6645,15610 6689,15686 6712,15773 6712,15860 L 6712,15860 Z"/>
       </g>
      </g>
      <g class="com.sun.star.drawing.CustomShape">
       <g id="id28">
        <rect class="BoundingBox" stroke="none" fill="none" x="2412" y="15760" width="1002" height="1002"/>
        <path fill="rgb(114,159,207)" stroke="none" d="M 3413,16261 C 3413,16348 3390,16435 3346,16511 3302,16587 3239,16650 3163,16694 3087,16738 3000,16761 2913,16761 2825,16761 2738,16738 2662,16694 2586,16650 2523,16587 2479,16511 2435,16435 2412,16348 2412,16261 2412,16173 2435,16086 2479,16010 2523,15934 2586,15871 2662,15827 2738,15783 2825,15760 2912,15760 3000,15760 3087,15783 3163,15827 3239,15871 3302,15934 3346,16010 3390,16086 3413,16173 3413,16261 L 3413,16261 Z"/>
       </g>
      </g>
      <g class="com.sun.star.drawing.CustomShape">
       <g id="id29">
        <rect class="BoundingBox" stroke="none" fill="none" x="2613" y="14560" width="1002" height="1002"/>
        <path fill="rgb(114,159,207)" stroke="none" d="M 3614,15061 C 3614,15148 3591,15235 3547,15311 3503,15387 3440,15450 3364,15494 3288,15538 3201,15561 3114,15561 3026,15561 2939,15538 2863,15494 2787,15450 2724,15387 2680,15311 2636,15235 2613,15148 2613,15061 2613,14973 2636,14886 2680,14810 2724,14734 2787,14671 2863,14627 2939,14583 3026,14560 3113,14560 3201,14560 3288,14583 3364,14627 3440,14671 3503,14734 3547,14810 3591,14886 3614,14973 3614,15061 L 3614,15061 Z"/>
       </g>
      </g>
      <g class="com.sun.star.drawing.CustomShape">
       <g id="id30">
        <rect class="BoundingBox" stroke="none" fill="none" x="1414" y="14461" width="1002" height="1002"/>
        <path fill="rgb(114,159,207)" stroke="none" d="M 2415,14962 C 2415,15049 2392,15136 2348,15212 2304,15288 2241,15351 2165,15395 2089,15439 2002,15462 1915,15462 1827,15462 1740,15439 1664,15395 1588,15351 1525,15288 1481,15212 1437,15136 1414,15049 1414,14962 1414,14874 1437,14787 1481,14711 1525,14635 1588,14572 1664,14528 1740,14484 1827,14461 1914,14461 2002,14461 2089,14484 2165,14528 2241,14572 2304,14635 2348,14711 2392,14787 2415,14874 2415,14962 L 2415,14962 Z"/>
       </g>
      </g>
      <g class="com.sun.star.drawing.CustomShape">
       <g id="id31">
        <rect class="BoundingBox" stroke="none" fill="none" x="5414" y="10961" width="1002" height="1002"/>
        <path fill="rgb(114,159,207)" stroke="none" d="M 6415,11462 C 6415,11549 6392,11636 6348,11712 6304,11788 6241,11851 6165,11895 6089,11939 6002,11962 5915,11962 5827,11962 5740,11939 5664,11895 5588,11851 5525,11788 5481,11712 5437,11636 5414,11549 5414,11462 5414,11374 5437,11287 5481,11211 5525,11135 5588,11072 5664,11028 5740,10984 5827,10961 5915,10961 6002,10961 6089,10984 6165,11028 6241,11072 6304,11135 6348,11211 6392,11287 6415,11374 6415,11462 L 6415,11462 Z"/>
       </g>
      </g>
      <g class="com.sun.star.drawing.CustomShape">
       <g id="id32">
        <rect class="BoundingBox" stroke="none" fill="none" x="10601" y="351" width="3003" height="3002"/>
        <path fill="rgb(114,159,207)" stroke="none" d="M 13602,1852 C 13602,2115 13533,2374 13401,2602 13269,2830 13080,3019 12852,3151 12624,3283 12365,3352 12101,3352 11838,3352 11579,3283 11351,3151 11123,3019 10934,2830 10802,2602 10670,2374 10601,2115 10601,1852 10601,1588 10670,1329 10802,1101 10934,873 11123,684 11351,552 11579,420 11838,351 12101,351 12365,351 12624,420 12852,552 13080,684 13269,873 13401,1101 13533,1329 13602,1588 13602,1851 L 13602,1852 Z"/>
       </g>
      </g>
      <g class="com.sun.star.drawing.CustomShape">
       <g id="id33">
        <rect class="BoundingBox" stroke="none" fill="none" x="10407" y="4256" width="1002" height="1002"/>
        <path fill="rgb(114,159,207)" stroke="none" d="M 11408,4757 C 11408,4844 11385,4931 11341,5007 11297,5083 11234,5146 11158,5190 11082,5234 10995,5257 10908,5257 10820,5257 10733,5234 10657,5190 10581,5146 10518,5083 10474,5007 10430,4931 10407,4844 10407,4757 10407,4669 10430,4582 10474,4506 10518,4430 10581,4367 10657,4323 10733,4279 10820,4256 10908,4256 10995,4256 11082,4279 11158,4323 11234,4367 11297,4430 11341,4506 11385,4582 11408,4669 11408,4756 L 11408,4757 Z"/>
       </g>
      </g>
      <g class="com.sun.star.drawing.CustomShape">
       <g id="id34">
        <rect class="BoundingBox" stroke="none" fill="none" x="10308" y="3057" width="1002" height="1002"/>
        <path fill="rgb(114,159,207)" stroke="none" d="M 11309,3558 C 11309,3645 11286,3732 11242,3808 11198,3884 11135,3947 11059,3991 10983,4035 10896,4058 10809,4058 10721,4058 10634,4035 10558,3991 10482,3947 10419,3884 10375,3808 10331,3732 10308,3645 10308,3558 10308,3470 10331,3383 10375,3307 10419,3231 10482,3168 10558,3124 10634,3080 10721,3057 10809,3057 10896,3057 10983,3080 11059,3124 11135,3168 11198,3231 11242,3307 11286,3383 11309,3470 11309,3557 L 11309,3558 Z"/>
       </g>
      </g>
      <g class="com.sun.star.drawing.CustomShape">
       <g id="id35">
        <rect class="BoundingBox" stroke="none" fill="none" x="9609" y="58" width="1002" height="1002"/>
        <path fill="rgb(114,159,207)" stroke="none" d="M 10610,559 C 10610,646 10587,733 10543,809 10499,885 10436,948 10360,992 10284,1036 10197,1059 10110,1059 10022,1059 9935,1036 9859,992 9783,948 9720,885 9676,809 9632,733 9609,646 9609,559 9609,471 9632,384 9676,308 9720,232 9783,169 9859,125 9935,81 10022,58 10110,58 10197,58 10284,81 10360,125 10436,169 10499,232 10543,308 10587,384 10610,471 10610,558 L 10610,559 Z"/>
       </g>
      </g>
      <g class="com.sun.star.drawing.CustomShape">
       <g id="id36">
        <rect class="BoundingBox" stroke="none" fill="none" x="17905" y="7854" width="2003" height="2003"/>
        <path fill="rgb(114,159,207)" stroke="none" d="M 19907,8856 C 19907,9031 19861,9204 19773,9356 19685,9508 19559,9634 19407,9722 19255,9810 19082,9856 18906,9856 18731,9856 18558,9810 18406,9722 18254,9634 18128,9508 18040,9356 17952,9204 17906,9031 17906,8856 17906,8680 17952,8507 18040,8355 18128,8203 18254,8077 18406,7989 18558,7901 18731,7855 18906,7855 19082,7855 19255,7901 19407,7989 19559,8077 19685,8203 19773,8355 19861,8507 19907,8680 19907,8855 L 19907,8856 Z"/>
       </g>
      </g>
      <g class="com.sun.star.drawing.CustomShape">
       <g id="id37">
        <rect class="BoundingBox" stroke="none" fill="none" x="13807" y="1457" width="2003" height="2002"/>
        <path fill="rgb(114,159,207)" stroke="none" d="M 15809,2458 C 15809,2633 15763,2806 15675,2958 15587,3110 15461,3236 15309,3324 15157,3412 14984,3458 14808,3458 14633,3458 14460,3412 14308,3324 14156,3236 14030,3110 13942,2958 13854,2806 13808,2633 13808,2458 13808,2282 13854,2109 13942,1957 14030,1805 14156,1679 14308,1591 14460,1503 14633,1457 14808,1457 14984,1457 15157,1503 15309,1591 15461,1679 15587,1805 15675,1957 15763,2109 15809,2282 15809,2457 L 15809,2458 Z"/>
       </g>
      </g>
      <g class="com.sun.star.drawing.CustomShape">
       <g id="id38">
        <rect class="BoundingBox" stroke="none" fill="none" x="15651" y="4001" width="3002" height="3002"/>
        <path fill="rgb(114,159,207)" stroke="none" d="M 18652,5502 C 18652,5765 18583,6024 18451,6252 18319,6480 18130,6669 17902,6801 17674,6933 17415,7002 17152,7002 16888,7002 16629,6933 16401,6801 16173,6669 15984,6480 15852,6252 15720,6024 15651,5765 15651,5502 15651,5238 15720,4979 15852,4751 15984,4523 16173,4334 16401,4202 16629,4070 16888,4001 17152,4001 17415,4001 17674,4070 17902,4202 18130,4334 18319,4523 18451,4751 18583,4979 18652,5238 18652,5501 L 18652,5502 Z"/>
       </g>
      </g>
      <g class="com.sun.star.drawing.CustomShape">
       <g id="id39">
        <rect class="BoundingBox" stroke="none" fill="none" x="18407" y="6456" width="1002" height="1002"/>
        <path fill="rgb(114,159,207)" stroke="none" d="M 19408,6957 C 19408,7044 19385,7131 19341,7207 19297,7283 19234,7346 19158,7390 19082,7434 18995,7457 18908,7457 18820,7457 18733,7434 18657,7390 18581,7346 18518,7283 18474,7207 18430,7131 18407,7044 18407,6957 18407,6869 18430,6782 18474,6706 18518,6630 18581,6567 18657,6523 18733,6479 18820,6456 18908,6456 18995,6456 19082,6479 19158,6523 19234,6567 19297,6630 19341,6706 19385,6782 19408,6869 19408,6956 L 19408,6957 Z"/>
       </g>
      </g>
      <g class="com.sun.star.drawing.CustomShape">
       <g id="id40">
        <rect class="BoundingBox" stroke="none" fill="none" x="17208" y="7157" width="1002" height="1002"/>
        <path fill="rgb(114,159,207)" stroke="none" d="M 18209,7658 C 18209,7745 18186,7832 18142,7908 18098,7984 18035,8047 17959,8091 17883,8135 17796,8158 17709,8158 17621,8158 17534,8135 17458,8091 17382,8047 17319,7984 17275,7908 17231,7832 17208,7745 17208,7658 17208,7570 17231,7483 17275,7407 17319,7331 17382,7268 17458,7224 17534,7180 17621,7157 17709,7157 17796,7157 17883,7180 17959,7224 18035,7268 18098,7331 18142,7407 18186,7483 18209,7570 18209,7657 L 18209,7658 Z"/>
       </g>
      </g>
      <g class="com.sun.star.drawing.CustomShape">
       <g id="id41">
        <rect class="BoundingBox" stroke="none" fill="none" x="16109" y="2758" width="1002" height="1002"/>
        <path fill="rgb(114,159,207)" stroke="none" d="M 17110,3259 C 17110,3346 17087,3433 17043,3509 16999,3585 16936,3648 16860,3692 16784,3736 16697,3759 16610,3759 16522,3759 16435,3736 16359,3692 16283,3648 16220,3585 16176,3509 16132,3433 16109,3346 16109,3259 16109,3171 16132,3084 16176,3008 16220,2932 16283,2869 16359,2825 16435,2781 16522,2758 16610,2758 16697,2758 16784,2781 16860,2825 16936,2869 16999,2932 17043,3008 17087,3084 17110,3171 17110,3258 L 17110,3259 Z"/>
       </g>
      </g>
      <g class="com.sun.star.drawing.CustomShape">
       <g id="id42">
        <rect class="BoundingBox" stroke="none" fill="none" x="15110" y="3459" width="1002" height="1002"/>
        <path fill="rgb(114,159,207)" stroke="none" d="M 16111,3960 C 16111,4047 16088,4134 16044,4210 16000,4286 15937,4349 15861,4393 15785,4437 15698,4460 15611,4460 15523,4460 15436,4437 15360,4393 15284,4349 15221,4286 15177,4210 15133,4134 15110,4047 15110,3960 15110,3872 15133,3785 15177,3709 15221,3633 15284,3570 15360,3526 15436,3482 15523,3459 15611,3459 15698,3459 15785,3482 15861,3526 15937,3570 16000,3633 16044,3709 16088,3785 16111,3872 16111,3959 L 16111,3960 Z"/>
       </g>
      </g>
      <g class="com.sun.star.drawing.CustomShape">
       <g id="id43">
        <rect class="BoundingBox" stroke="none" fill="none" x="17811" y="14060" width="1002" height="1002"/>
        <path fill="rgb(114,159,207)" stroke="none" d="M 18812,14561 C 18812,14648 18789,14735 18745,14811 18701,14887 18638,14950 18562,14994 18486,15038 18399,15061 18312,15061 18224,15061 18137,15038 18061,14994 17985,14950 17922,14887 17878,14811 17834,14735 17811,14648 17811,14561 17811,14473 17834,14386 17878,14310 17922,14234 17985,14171 18061,14127 18137,14083 18224,14060 18312,14060 18399,14060 18486,14083 18562,14127 18638,14171 18701,14234 18745,14310 18789,14386 18812,14473 18812,14561 L 18812,14561 Z"/>
       </g>
      </g>
      <g class="com.sun.star.drawing.CustomShape">
       <g id="id44">
        <rect class="BoundingBox" stroke="none" fill="none" x="601" y="5251" width="4002" height="4002"/>
        <path fill="rgb(114,159,207)" stroke="none" d="M 4602,7252 C 4602,7603 4510,7948 4334,8252 4158,8556 3906,8808 3602,8984 3298,9160 2953,9252 2602,9252 2250,9252 1905,9160 1601,8984 1297,8808 1045,8556 869,8252 693,7948 601,7603 601,7252 601,6900 693,6555 869,6251 1045,5947 1297,5695 1601,5519 1905,5343 2250,5251 2601,5251 2953,5251 3298,5343 3602,5519 3906,5695 4158,5947 4334,6251 4510,6555 4602,6900 4602,7251 L 4602,7252 Z"/>
       </g>
      </g>
      <g class="com.sun.star.drawing.CustomShape">
       <g id="id45">
        <rect class="BoundingBox" stroke="none" fill="none" x="3807" y="4056" width="2002" height="2002"/>
        <path fill="rgb(114,159,207)" stroke="none" d="M 5808,5056 C 5808,5232 5762,5405 5674,5557 5586,5709 5460,5835 5308,5923 5156,6011 4983,6057 4808,6057 4632,6057 4459,6011 4307,5923 4155,5835 4029,5709 3941,5557 3853,5405 3807,5232 3807,5057 3807,4881 3853,4708 3941,4556 4029,4404 4155,4278 4307,4190 4459,4102 4632,4056 4807,4056 4983,4056 5156,4102 5308,4190 5460,4278 5586,4404 5674,4556 5762,4708 5808,4881 5808,5056 L 5808,5056 Z"/>
       </g>
      </g>
      <g class="com.sun.star.drawing.CustomShape">
       <g id="id46">
        <rect class="BoundingBox" stroke="none" fill="none" x="2808" y="2756" width="1502" height="1502"/>
        <path fill="rgb(114,159,207)" stroke="none" d="M 4309,3506 C 4309,3638 4274,3768 4208,3882 4143,3996 4048,4091 3934,4156 3820,4222 3690,4257 3559,4257 3427,4257 3297,4222 3183,4156 3069,4091 2974,3996 2909,3882 2843,3768 2808,3638 2808,3507 2808,3375 2843,3245 2909,3131 2974,3017 3069,2922 3183,2857 3297,2791 3427,2756 3558,2756 3690,2756 3820,2791 3934,2857 4048,2922 4143,3017 4208,3131 4274,3245 4309,3375 4309,3506 L 4309,3506 Z"/>
       </g>
      </g>
      <g class="com.sun.star.drawing.CustomShape">
       <g id="id47">
        <rect class="BoundingBox" stroke="none" fill="none" x="4109" y="1758" width="1002" height="1002"/>
        <path fill="rgb(114,159,207)" stroke="none" d="M 5110,2259 C 5110,2346 5087,2433 5043,2509 4999,2585 4936,2648 4860,2692 4784,2736 4697,2759 4610,2759 4522,2759 4435,2736 4359,2692 4283,2648 4220,2585 4176,2509 4132,2433 4109,2346 4109,2259 4109,2171 4132,2084 4176,2008 4220,1932 4283,1869 4359,1825 4435,1781 4522,1758 4610,1758 4697,1758 4784,1781 4860,1825 4936,1869 4999,1932 5043,2008 5087,2084 5110,2171 5110,2258 L 5110,2259 Z"/>
       </g>
      </g>
      <g class="com.sun.star.drawing.CustomShape">
       <g id="id48">
        <rect class="BoundingBox" stroke="none" fill="none" x="1810" y="4059" width="1002" height="1002"/>
        <path fill="rgb(114,159,207)" stroke="none" d="M 2811,4560 C 2811,4647 2788,4734 2744,4810 2700,4886 2637,4949 2561,4993 2485,5037 2398,5060 2311,5060 2223,5060 2136,5037 2060,4993 1984,4949 1921,4886 1877,4810 1833,4734 1810,4647 1810,4560 1810,4472 1833,4385 1877,4309 1921,4233 1984,4170 2060,4126 2136,4082 2223,4059 2310,4059 2398,4059 2485,4082 2561,4126 2637,4170 2700,4233 2744,4309 2788,4385 2811,4472 2811,4559 L 2811,4560 Z"/>
       </g>
      </g>
      <g class="com.sun.star.drawing.CustomShape">
       <g id="id49">
        <rect class="BoundingBox" stroke="none" fill="none" x="8111" y="18860" width="1002" height="1002"/>
        <path fill="rgb(114,159,207)" stroke="none" d="M 9112,19361 C 9112,19448 9089,19535 9045,19611 9001,19687 8938,19750 8862,19794 8786,19838 8699,19861 8612,19861 8524,19861 8437,19838 8361,19794 8285,19750 8222,19687 8178,19611 8134,19535 8111,19448 8111,19361 8111,19273 8134,19186 8178,19110 8222,19034 8285,18971 8361,18927 8437,18883 8524,18860 8612,18860 8699,18860 8786,18883 8862,18927 8938,18971 9001,19034 9045,19110 9089,19186 9112,19273 9112,19361 L 9112,19361 Z"/>
       </g>
      </g>
      <g class="com.sun.star.drawing.CustomShape">
       <g id="id50">
        <rect class="BoundingBox" stroke="none" fill="none" x="109" y="8757" width="1202" height="1202"/>
        <path fill="rgb(114,159,207)" stroke="none" d="M 1310,9358 C 1310,9463 1282,9566 1230,9658 1177,9749 1101,9825 1010,9878 918,9930 815,9958 710,9958 604,9958 501,9930 409,9878 318,9825 242,9749 189,9658 137,9566 109,9463 109,9358 109,9252 137,9149 189,9057 242,8966 318,8890 409,8837 501,8785 604,8757 709,8757 815,8757 918,8785 1010,8837 1101,8890 1177,8966 1230,9057 1282,9149 1310,9252 1310,9358 L 1310,9358 Z"/>
       </g>
      </g>
      <g class="com.sun.star.drawing.CustomShape">
       <g id="id51">
        <rect class="BoundingBox" stroke="none" fill="none" x="8310" y="12259" width="1002" height="1002"/>
        <path fill="rgb(114,159,207)" stroke="none" d="M 9311,12760 C 9311,12847 9288,12934 9244,13010 9200,13086 9137,13149 9061,13193 8985,13237 8898,13260 8811,13260 8723,13260 8636,13237 8560,13193 8484,13149 8421,13086 8377,13010 8333,12934 8310,12847 8310,12760 8310,12672 8333,12585 8377,12509 8421,12433 8484,12370 8560,12326 8636,12282 8723,12259 8811,12259 8898,12259 8985,12282 9061,12326 9137,12370 9200,12433 9244,12509 9288,12585 9311,12672 9311,12760 L 9311,12760 Z"/>
       </g>
      </g>
      <g class="com.sun.star.drawing.CustomShape">
       <g id="id52">
        <rect class="BoundingBox" stroke="none" fill="none" x="9411" y="11860" width="1002" height="1002"/>
        <path fill="rgb(114,159,207)" stroke="none" d="M 10412,12361 C 10412,12448 10389,12535 10345,12611 10301,12687 10238,12750 10162,12794 10086,12838 9999,12861 9912,12861 9824,12861 9737,12838 9661,12794 9585,12750 9522,12687 9478,12611 9434,12535 9411,12448 9411,12361 9411,12273 9434,12186 9478,12110 9522,12034 9585,11971 9661,11927 9737,11883 9824,11860 9912,11860 9999,11860 10086,11883 10162,11927 10238,11971 10301,12034 10345,12110 10389,12186 10412,12273 10412,12361 L 10412,12361 Z"/>
       </g>
      </g>
      <g class="com.sun.star.drawing.CustomShape">
       <g id="id53">
        <rect class="BoundingBox" stroke="none" fill="none" x="12950" y="14550" width="1502" height="1503"/>
        <path fill="rgb(114,159,207)" stroke="none" d="M 14451,15301 C 14451,15432 14416,15562 14350,15676 14285,15790 14190,15885 14076,15950 13962,16016 13832,16051 13701,16051 13569,16051 13439,16016 13325,15950 13211,15885 13116,15790 13051,15676 12985,15562 12950,15432 12950,15301 12950,15169 12985,15039 13051,14925 13116,14811 13211,14716 13325,14651 13439,14585 13569,14550 13701,14550 13832,14550 13962,14585 14076,14651 14190,14716 14285,14811 14350,14925 14416,15039 14451,15169 14451,15301 L 14451,15301 Z"/>
       </g>
      </g>
     </g>
    </g>
   </g>
  </g>
 </g>
</svg>